<svg width="52" height="54" viewBox="0 0 52 54" fill="none" xmlns="http://www.w3.org/2000/svg">
<g filter="url(#filter0_d_1_15)">
<path d="M27.9307 13.5037L25.2296 12.3534C24.7714 12.1582 24.241 12.3698 24.045 12.826L14.3549 35.3782C14.1588 35.8344 14.3714 36.3625 14.8296 36.5576L17.5307 37.708C17.989 37.9031 18.5194 37.6915 18.7154 37.2353L28.4055 14.6831C28.6015 14.2269 28.389 13.6989 27.9307 13.5037Z" fill="url(#paint0_linear_1_15)"/>
<path d="M28.0965 32.6933L35.7021 14.7564C35.9162 14.2488 35.6849 13.6612 35.1816 13.4452L32.7292 12.3866C32.2152 12.1641 31.6176 12.4039 31.397 12.9224L22.0931 34.6894C21.4291 36.2426 22.5536 37.9752 24.2306 37.9816L25.2115 37.986L36.8543 37.9881C37.4883 37.9881 38.0002 37.4697 38.0002 36.8324V33.8231C38.0002 33.1988 37.499 32.6933 36.88 32.6933H28.0965Z" fill="url(#paint1_linear_1_15)"/>
</g>
<defs>
<filter id="filter0_d_1_15" x="0.281738" y="0.280701" width="51.7183" height="53.7074" filterUnits="userSpaceOnUse" color-interpolation-filters="sRGB">
<feFlood flood-opacity="0" result="BackgroundImageFix"/>
<feColorMatrix in="SourceAlpha" type="matrix" values="0 0 0 0 0 0 0 0 0 0 0 0 0 0 0 0 0 0 127 0" result="hardAlpha"/>
<feOffset dy="2"/>
<feGaussianBlur stdDeviation="7"/>
<feComposite in2="hardAlpha" operator="out"/>
<feColorMatrix type="matrix" values="0 0 0 0 0.694118 0 0 0 0 0.117647 0 0 0 0 0.188235 0 0 0 0.6 0"/>
<feBlend mode="normal" in2="BackgroundImageFix" result="effect1_dropShadow_1_15"/>
<feBlend mode="normal" in="SourceGraphic" in2="effect1_dropShadow_1_15" result="shape"/>
</filter>
<linearGradient id="paint0_linear_1_15" x1="23.7543" y1="19.515" x2="15.1299" y2="36.6024" gradientUnits="userSpaceOnUse">
<stop stop-color="#FF1A35"/>
<stop offset="1" stop-color="#A01F2E"/>
</linearGradient>
<linearGradient id="paint1_linear_1_15" x1="29.9627" y1="19.2913" x2="29.6147" y2="37.9816" gradientUnits="userSpaceOnUse">
<stop stop-color="#FF1A35"/>
<stop offset="1" stop-color="#A01F2E"/>
</linearGradient>
</defs>
</svg>
